; list of alll midi frequncies in use


midiFrequencies:
 
     .dw 0    ; 0    
     .dw 0    ; 1    
     .dw 0    ; 2    
     .dw 0    ; 3    
     .dw 0    ; 4    
     .dw 0    ; 5    
     .dw 0    ; 6    
     .dw 0    ; 7    
     .dw 0    ; 8    
     .dw 0    ; 9    
     .dw 0    ; 10    
     .dw 15    ; 11    Cb0
     .dw 16    ; 12    C0
     .dw 17    ; 13    Db0
     .dw 18    ; 14    D0
     .dw 19    ; 15    Eb0
     .dw 19    ; 15    D#0
     .dw 20    ; 16    E0
     .dw 21    ; 17    F0
     .dw 23    ; 18    Gb0
     .dw 24    ; 19    G0
     .dw 25    ; 20    Ab0
     .dw 27    ; 21    A0
     .dw 29    ; 22    A#0
     .dw 32    ; 24    B#0
     .dw 34    ; 25    C#1
     .dw 36    ; 26    D1
     .dw 38    ; 27    D#1
     .dw 41    ; 28    E1
     .dw 43    ; 29    E#1
     .dw 46    ; 30    F#1
     .dw 48    ; 31    G1
     .dw 51    ; 32    G#1
     .dw 55    ; 33    A1
     .dw 58    ; 34    A#1
     .dw 61    ; 35    B1
     .dw 65    ; 36    B#1
     .dw 69    ; 37    C#2
     .dw 73    ; 38    D2
     .dw 77    ; 39    D#2
     .dw 82    ; 40    E2
     .dw 87    ; 41    E#2
     .dw 92    ; 42    F#2
     .dw 97    ; 43    G2
     .dw 103    ; 44    G#2
     .dw 110    ; 45    A2
     .dw 116    ; 46    A#2
     .dw 123    ; 47    B2
     .dw 130    ; 48    B#2
     .dw 138    ; 49    C#3
     .dw 146    ; 50    D3
     .dw 155    ; 51    D#3
     .dw 164    ; 52    E3
     .dw 174    ; 53    E#3
     .dw 185    ; 54    F#3
     .dw 196    ; 55    G3
     .dw 207    ; 56    G#3
     .dw 220    ; 57    A3
     .dw 233    ; 58    A#3
     .dw 246    ; 59    B3
     .dw 261    ; 60    B#3
     .dw 277    ; 61    C#4
     .dw 293    ; 62    D4
     .dw 311    ; 63    D#4 --- end of good notes here ??
     .dw 329    ; 64    E4
     .dw 349    ; 65    E#4
     .dw 369    ; 66    F#4
     .dw 392    ; 67    G4
     .dw 415    ; 68    G#4
     .dw 440    ; 69    A4
     .dw 466    ; 70    A#4
     .dw 493    ; 71    B4
     .dw 523    ; 72    B#4
     .dw 554    ; 73    C#5
     .dw 587    ; 74    D5
     .dw 622    ; 75    D#5
     .dw 659    ; 76    E5
     .dw 698    ; 77    E#5
     .dw 739    ; 78    F#5
     .dw 783    ; 79    G5
     .dw 830    ; 80    G#5
     .dw 880    ; 81    A5
     .dw 932    ; 82    A#5
     .dw 987    ; 83    B5
     .dw 1046    ; 84    B#5
     .dw 1108    ; 85    C#6
     .dw 1174    ; 86    D6
     .dw 1244    ; 87    D#6
     .dw 1318    ; 88    E6
     .dw 1396    ; 89    F6
     .dw 1480    ; 90    F#6
     .dw 1568    ; 91    G6
     .dw 1661    ; 92    G#6
     .dw 1760    ; 93    A6
     .dw 1864    ; 94    A#6
     .dw 1975    ; 95    B6
     .dw 2093    ; 96    B#6
     .dw 2217    ; 97    C#7
     .dw 2349    ; 98    D7
     .dw 2489    ; 99    D#7
     .dw 2637    ; 100    E7
     .dw 2793    ; 101    E#7
     .dw 2960    ; 102    F#7
     .dw 3136    ; 103    G7
     .dw 3322    ; 104    G#7
     .dw 3520    ; 105    A7
     .dw 3729    ; 106    A#7
     .dw 3951    ; 107    B7
     .dw 4186    ; 108    B#7
     .dw 4434    ; 109    C#8
     .dw 4698    ; 110    D8
     .dw 4978    ; 111    D#8
     .dw 5274    ; 112    E8
     .dw 5587    ; 113    E#8
     .dw 5919    ; 114    F#8
     .dw 6271    ; 115    G8
     .dw 6644    ; 116    G#8
     .dw 7040    ; 117    A8
     .dw 7458    ; 118    A#8
     .dw 7902    ; 119    B8
     .dw 8372    ; 120    B#8
     .dw 8869    ; 121    C#9
     .dw 9397    ; 122    D9
     .dw 9956    ; 123    D#9
     .dw 10548    ; 124    E9
     .dw 11175    ; 125    E#9
     .dw 11840    ; 126    F#9
     .dw 12544    ; 127    G9
     .dw 13290    ; 128    G#9
     .dw 14080    ; 129    A9
     .dw 14917    ; 130    A#9
     .dw 15804    ; 131    B9
     .dw 16744    ; 132    B#9


